<svg width="22" height="22" viewBox="0 0 22 22" fill="none" xmlns="http://www.w3.org/2000/svg">
<path d="M18.9097 14.6657C18.8384 14.5797 18.7683 14.4938 18.6996 14.4109C17.7542 13.2675 17.1823 12.5774 17.1823 9.34055C17.1823 7.66477 16.7814 6.28977 15.9912 5.25852C15.4086 4.49668 14.621 3.91875 13.5828 3.49164C13.5695 3.48421 13.5576 3.47446 13.5476 3.46285C13.1742 2.21246 12.1524 1.375 11 1.375C9.84757 1.375 8.8262 2.21246 8.4528 3.46156C8.44284 3.47275 8.43108 3.48219 8.418 3.48949C5.99542 4.4868 4.81808 6.4002 4.81808 9.33926C4.81808 12.5774 4.24702 13.2675 3.30085 14.4096C3.2321 14.4925 3.16206 14.5767 3.09074 14.6644C2.90649 14.8866 2.78975 15.1569 2.75434 15.4434C2.71893 15.7299 2.76633 16.0205 2.89093 16.2809C3.15605 16.8395 3.72109 17.1862 4.36605 17.1862H17.6387C18.2806 17.1862 18.8418 16.8399 19.1078 16.2839C19.2329 16.0234 19.2808 15.7326 19.2456 15.4458C19.2105 15.159 19.0939 14.8882 18.9097 14.6657V14.6657Z" fill="white"/>
<path d="M11 20.625C11.6209 20.6245 12.2301 20.4559 12.763 20.1372C13.2959 19.8185 13.7326 19.3615 14.0267 18.8147C14.0406 18.7885 14.0474 18.7592 14.0466 18.7295C14.0458 18.6999 14.0373 18.671 14.022 18.6456C14.0067 18.6202 13.985 18.5992 13.9592 18.5847C13.9334 18.5701 13.9043 18.5625 13.8746 18.5625H8.12625C8.09657 18.5624 8.06737 18.57 8.04149 18.5845C8.01561 18.599 7.99394 18.62 7.97858 18.6454C7.96322 18.6708 7.9547 18.6998 7.95384 18.7294C7.95299 18.7591 7.95984 18.7885 7.97371 18.8147C8.26785 19.3615 8.70446 19.8184 9.23726 20.1371C9.77005 20.4558 10.3792 20.6244 11 20.625Z" fill="white"/>
</svg>
